<svg width="24" height="24" viewBox="0 0 24 24" fill="none" xmlns="http://www.w3.org/2000/svg">
<path d="M16.2806 9.21937C16.3504 9.28903 16.4057 9.37175 16.4434 9.46279C16.4812 9.55384 16.5006 9.65144 16.5006 9.75C16.5006 9.84856 16.4812 9.94616 16.4434 10.0372C16.4057 10.1283 16.3504 10.211 16.2806 10.2806L11.0306 15.5306C10.961 15.6004 10.8783 15.6557 10.7872 15.6934C10.6962 15.7312 10.5986 15.7506 10.5 15.7506C10.4014 15.7506 10.3038 15.7312 10.2128 15.6934C10.1217 15.6557 10.039 15.6004 9.96937 15.5306L7.71937 13.2806C7.57864 13.1399 7.49958 12.949 7.49958 12.75C7.49958 12.551 7.57864 12.3601 7.71937 12.2194C7.86011 12.0786 8.05098 11.9996 8.25 11.9996C8.44902 11.9996 8.63989 12.0786 8.78063 12.2194L10.5 13.9397L15.2194 9.21937C15.289 9.14964 15.3717 9.09432 15.4628 9.05658C15.5538 9.01884 15.6514 8.99941 15.75 8.99941C15.8486 8.99941 15.9462 9.01884 16.0372 9.05658C16.1283 9.09432 16.211 9.14964 16.2806 9.21937ZM21 4.5V19.5C21 19.8978 20.842 20.2794 20.5607 20.5607C20.2794 20.842 19.8978 21 19.5 21H4.5C4.10218 21 3.72064 20.842 3.43934 20.5607C3.15804 20.2794 3 19.8978 3 19.5V4.5C3 4.10218 3.15804 3.72064 3.43934 3.43934C3.72064 3.15804 4.10218 3 4.5 3H19.5C19.8978 3 20.2794 3.15804 20.5607 3.43934C20.842 3.72064 21 4.10218 21 4.5ZM19.5 19.5V4.5H4.5V19.5H19.5Z" fill="#434345"/>
</svg>
